<svg version="1" xmlns="http://www.w3.org/2000/svg" width="341.333" height="341.333" viewBox="0 0 256.000000 256.000000"><path d="M58.7 26.2c-3 5.1-9.7 16.7-14.9 25.8-5.2 9.1-17.2 29.9-26.7 46.2L-.1 128l22.7 39.2c12.5 21.6 23.8 41.3 25.2 43.7 1.4 2.5 5.5 9.7 9.2 16l6.7 11.6h128.6L203 220c5.9-10.2 20.2-35 31.9-55.3l21.2-36.7-11.5-19.8c-6.2-10.8-12.3-21.3-13.4-23.2-1-1.9-4.3-7.6-7.2-12.5-6.1-10.5-8.4-14.5-11.6-20.1-1.2-2.2-6.3-11-11.2-19.5l-8.9-15.4-64.1-.3-64.1-.2-5.4 9.2zM193 39c3.7 6.3 16.7 28.8 28.9 50l22.3 38.5-2.9 5.5c-1.6 3-10 17.9-18.8 33-8.7 15.1-20.4 35.4-25.9 45l-10.1 17.5-58.3.3-58.2.2-2.5-4.2c-4-6.7-13.3-22.7-24.5-42.3-5.7-9.9-15-26-20.7-35.8C16.6 136.9 12 128.5 12 128c0-.4 8.2-14.9 18.1-32.1 10-17.3 19.3-33.3 20.6-35.7 1.3-2.3 5.3-9.3 8.9-15.4 3.5-6.1 6.4-11.3 6.4-11.5 0-.3.9-1.8 2.1-3.4l2-2.9 58.2.2 58.1.3L193 39z"/><path d="M80.6 76.6l-3.7 3.6 22.3 22.2c12.3 12.3 22.9 23 23.6 23.8 1.1 1.4-2.1 4.9-22.3 25.1L77 174.8l2.9 3.1c1.6 1.7 3.4 3.1 4.1 3.1.7 0 11.5-10.4 24.2-23.1 20.1-20.3 23.1-22.9 24.5-21.7.9.7 11.7 11.3 23.9 23.6l22.3 22.3 3.5-3.7 3.5-3.7-22.2-22.2c-12.2-12.2-22.8-22.9-23.5-23.7-1.1-1.4 1.8-4.7 22.3-25.2l23.6-23.5-3.6-3.6-3.7-3.5-23.5 23.5c-12.9 12.9-23.6 23.5-23.8 23.5-.1 0-10.8-10.6-23.8-23.5L84.2 73.1l-3.6 3.5z"/></svg>